<svg xmlns="http://www.w3.org/2000/svg" viewBox="0 0 64 64">
  <defs>
    <linearGradient id="heartGradient" x1="24" y1="25" x2="40" y2="46" gradientUnits="userSpaceOnUse">
      <stop offset="0" stop-color="#6ee7b7" />
      <stop offset="1" stop-color="#047857" />
    </linearGradient>
  </defs>

  <rect width="64" height="64" rx="16" fill="#ffffff" />
  <circle cx="32" cy="32" r="26" fill="#ecfdf5" />
  <path
    d="M32 6c-6.2 4.1-12.6 6.3-19 7.5v14.3c0 12.2 7.8 23.3 19 28 11.2-4.7 19-15.8 19-28V13.5C44.6 12.3 38.2 10.1 32 6Z"
    fill="none"
    stroke="#022c22"
    stroke-width="1.8"
    stroke-linecap="round"
    stroke-linejoin="round"
  />
  <path
    d="M32 43.5c-.9 0-1.8-.4-2.4-1-8.7-8.8-14.3-14.4-14.3-22 0-5.2 4.1-9.3 9.3-9.3 3.1 0 6 1.6 7.5 4.1 1.5-2.5 4.4-4.1 7.5-4.1 5.2 0 9.3 4.2 9.3 9.3 0 7.7-5.6 13.2-14.3 22-.6.6-1.5 1-2.3 1Z"
    fill="url(#heartGradient)"
    stroke="#ecfdf5"
    stroke-width="1.6"
    stroke-linecap="round"
    stroke-linejoin="round"
    transform="translate(0 7)"
  />
</svg>
